<?xml version="1.0" standalone="no"?><!DOCTYPE svg PUBLIC "-//W3C//DTD SVG 1.1//EN" "http://www.w3.org/Graphics/SVG/1.1/DTD/svg11.dtd"><svg class="icon" width="200px" height="200.00px" viewBox="0 0 1024 1024" version="1.1" xmlns="http://www.w3.org/2000/svg"><path d="M741.03908 76.235113c67.933941 14.873316 103.218818 46.408335 101.273337 92.518872-3.373113 82.634574-164.139713 180.362114-345.145192 217.733776 17.822916-122.186957 59.430506-210.485291 99.735779-218.659349 14.685044-2.9496 33.386564-2.557266 49.201042 17.822916 0.204062 0.266819 0.345166 0.596196 0.596196 0.847226l41.748694-12.033641c-41.874209-90.494844-100.143703-146.771689-164.390543-146.771689-107.784322 0-198.718469 158.460164-223.632777 371.157555-90.8558-9.680237-152.106072-44.180646-150.913681-97.084377 1.333496-61.422955 82.289408-130.361015 191.956454-176.53411l-11.57855-40.666228C140.882985 157.159646 0.18298 279.032816 0.135812 390.362934c-0.015789 102.512696 121.857381 168.40702 294.767348 177.193063 12.127777 245.315076 110.388756 437.585317 229.155433 437.585317 108.003973 0 198.969499-158.852298 223.758292-371.957813l-71.526705 18.795657c-15.657784 114.216761-49.938542 193.76063-89.490725 193.76063-49.98551 0-91.498964-126.909355-97.790298-290.217433 9.162388-1.537558 18.387533-3.184841 27.675636-4.942049 280.92953-54.096123 511.277154-217.576683 506.272347-359.124114-3.576975-99.751369-129.670483-161.331217-297.497097-171.074212L741.03908 76.235113 741.03908 76.235113z" fill="#005CA1" /></svg>