<?xml version="1.0" standalone="no"?><!DOCTYPE svg PUBLIC "-//W3C//DTD SVG 1.1//EN" "http://www.w3.org/Graphics/SVG/1.1/DTD/svg11.dtd"><svg class="icon" width="200px" height="149.82px" viewBox="0 0 1367 1024" version="1.1" xmlns="http://www.w3.org/2000/svg"><path d="M978.956012 736.537457l-122.847241-131.719542-3.685417-3.54892-89.405492-91.589443 218.395095-224.40096 1.637963-2.047454A170.484671 170.484671 0 0 0 854.880299 0.136497a167.481738 167.481738 0 0 0-106.331112 37.536657l-1.637963 1.091975-63.198081 59.23967-59.922154-57.601706-1.501466-1.637964a170.621168 170.621168 0 0 0-235.320715 245.694482L603.72594 510.498534 386.422821 734.6265l-1.910957 2.729938a170.621168 170.621168 0 0 0 235.320714 245.694482l1.77446-1.501467 59.785657-57.465209 63.061584 58.966676 1.501466 1.501466a170.484671 170.484671 0 0 0 234.63823-245.694481zM467.91149 206.656358A56.919222 56.919222 0 0 1 545.987737 125.440682l49.821381 49.548388-67.292989 59.376166L614.236204 321.040789l66.883497-64.426553 68.248467 66.201013 85.174087-87.631031-63.334577-61.833112 44.08851-43.815515a54.598774 54.598774 0 0 1 38.355638-15.287657 56.919222 56.919222 0 0 1 56.782725 56.646228 55.827246 55.827246 0 0 1-16.92562 40.94908l-211.843242 218.395094z m382.873901 702.14023a56.509731 56.509731 0 0 1-38.355639-15.014663l-44.634497-44.634498 0.955478-1.091975 62.242602-61.969608-85.174087-89.405492-68.248467 68.248467v-0.682485l-66.474007-64.56305-83.809117 86.40256 66.747 60.331645-50.367368 49.957878a56.919222 56.919222 0 0 1-78.485737-81.898161l213.754198-220.852039 211.843242 217.303119a57.8747 57.8747 0 0 1 16.789123 40.94908 56.646228 56.646228 0 0 1-56.782724 56.919222z" fill="#D81E06" /><path d="M493.026926 588.028792l-78.34924-77.530258 80.396694-77.257265-80.533191-83.536124-81.89816 79.850707h-0.682485l-38.355639-38.355639-8.46281-7.234337a166.116769 166.116769 0 0 0-114.38443-45.316982 170.484671 170.484671 0 1 0 118.069848 293.331911l43.815516-42.587043h0.682484l81.079179 80.1237z m-285.005598-35.762196a55.690749 55.690749 0 0 1-37.40016 13.649693 56.782725 56.782725 0 1 1 34.124233-101.553719 79.987203 79.987203 0 0 1 9.281792 8.735804l36.717675 36.03519z m985.507864-211.570248a166.93575 166.93575 0 0 0-114.520928 45.453479l-8.599306 6.961343-38.355639 38.355639-78.076246-75.755799-3.548921-3.821914-80.396694 82.717142 79.304719 76.57478-78.622234 77.257265 78.622234 81.898161 79.577713-78.622234 1.637963-1.501467 44.770994 43.406025a170.621168 170.621168 0 1 0 118.479339-292.92242z m0 227.403892a55.554252 55.554252 0 0 1-37.673154-13.649693l-42.587043-43.406026 42.31405-41.768061a20.611037 20.611037 0 0 1 3.821914-3.002933 55.554252 55.554252 0 0 1 33.987736-11.192749 56.782725 56.782725 0 0 1 0 113.56545z" fill="#D81E06" /></svg>